<svg width="142" height="43" viewBox="0 0 142 43" fill="none" xmlns="http://www.w3.org/2000/svg">
<path d="M28.2 27.871C28.2022 27.9775 28.1832 28.0833 28.144 28.1824C28.1048 28.2814 28.0463 28.3716 27.9718 28.4477C27.8972 28.5238 27.8083 28.5843 27.7101 28.6255C27.6119 28.6668 27.5065 28.688 27.4 28.688H20.9C20.7935 28.688 20.688 28.6668 20.5898 28.6255C20.4917 28.5843 20.4027 28.5238 20.3282 28.4477C20.2537 28.3716 20.1951 28.2814 20.1559 28.1824C20.1167 28.0833 20.0977 27.9775 20.1 27.871V21.235C20.0977 21.1285 20.1167 21.0227 20.1559 20.9236C20.1951 20.8246 20.2537 20.7344 20.3282 20.6583C20.4027 20.5822 20.4917 20.5217 20.5898 20.4805C20.688 20.4392 20.7935 20.418 20.9 20.418H27.4C27.5065 20.418 27.6119 20.4392 27.7101 20.4805C27.8083 20.5217 27.8972 20.5822 27.9718 20.6583C28.0463 20.7344 28.1048 20.8246 28.144 20.9236C28.1832 21.0227 28.2022 21.1285 28.2 21.235V27.871Z" fill="white"/>
<path d="M18.4 7.96299C18.4023 8.06947 18.3832 8.17533 18.3441 8.27436C18.3049 8.37339 18.2463 8.4636 18.1718 8.5397C18.0973 8.61579 18.0083 8.67625 17.9101 8.71751C17.8119 8.75877 17.7065 8.78001 17.6 8.77999H11C10.8935 8.78001 10.7881 8.75877 10.6899 8.71751C10.5917 8.67625 10.5027 8.61579 10.4282 8.5397C10.3537 8.4636 10.2951 8.37339 10.256 8.27436C10.2168 8.17533 10.1977 8.06947 10.2 7.96299V1.22499C10.1977 1.11851 10.2168 1.01265 10.256 0.91362C10.2951 0.814589 10.3537 0.72438 10.4282 0.648283C10.5027 0.572186 10.5917 0.511733 10.6899 0.47047C10.7881 0.429208 10.8935 0.407965 11 0.40799H17.5C17.6065 0.407965 17.7119 0.429208 17.8101 0.47047C17.9083 0.511733 17.9973 0.572186 18.0718 0.648283C18.1463 0.72438 18.2049 0.814589 18.2441 0.91362C18.2833 1.01265 18.3023 1.11851 18.3 1.22499V7.96299H18.4Z" fill="white"/>
<path d="M28.2 7.96299C28.2022 8.06947 28.1832 8.17533 28.144 8.27436C28.1048 8.37339 28.0463 8.4636 27.9718 8.5397C27.8972 8.61579 27.8083 8.67625 27.7101 8.71751C27.6119 8.75877 27.5065 8.78001 27.4 8.77999H20.9C20.7935 8.78001 20.688 8.75877 20.5898 8.71751C20.4917 8.67625 20.4027 8.61579 20.3282 8.5397C20.2537 8.4636 20.1951 8.37339 20.1559 8.27436C20.1167 8.17533 20.0977 8.06947 20.1 7.96299V1.22499C20.0977 1.11851 20.1167 1.01265 20.1559 0.91362C20.1951 0.814589 20.2537 0.72438 20.3282 0.648283C20.4027 0.572186 20.4917 0.511733 20.5898 0.47047C20.688 0.429208 20.7935 0.407965 20.9 0.40799H27.4C27.5065 0.407965 27.6119 0.429208 27.7101 0.47047C27.8083 0.511733 27.8972 0.572186 27.9718 0.648283C28.0463 0.72438 28.1048 0.814589 28.144 0.91362C28.1832 1.01265 28.2022 1.11851 28.2 1.22499V7.96299Z" fill="white"/>
<path d="M8.6 17.968C8.60226 18.0745 8.58324 18.1803 8.54405 18.2794C8.50486 18.3784 8.44629 18.4686 8.37178 18.5447C8.29726 18.6208 8.20831 18.6812 8.11012 18.7225C8.01194 18.7638 7.9065 18.785 7.8 18.785H1.3C1.19349 18.785 1.08806 18.7638 0.989873 18.7225C0.891688 18.6812 0.802729 18.6208 0.728216 18.5447C0.653702 18.4686 0.595133 18.3784 0.555944 18.2794C0.516755 18.1803 0.497734 18.0745 0.499998 17.968V11.23C0.497734 11.1235 0.516755 11.0177 0.555944 10.9186C0.595133 10.8196 0.653702 10.7294 0.728216 10.6533C0.802729 10.5772 0.891688 10.5167 0.989873 10.4755C1.08806 10.4342 1.19349 10.413 1.3 10.413H7.8C7.9065 10.413 8.01194 10.4342 8.11012 10.4755C8.20831 10.5167 8.29726 10.5772 8.37178 10.6533C8.44629 10.7294 8.50486 10.8196 8.54405 10.9186C8.58324 11.0177 8.60226 11.1235 8.6 11.23V17.968Z" fill="white"/>
<path d="M18.4 17.968C18.4023 18.0745 18.3832 18.1803 18.3441 18.2794C18.3049 18.3784 18.2463 18.4686 18.1718 18.5447C18.0973 18.6208 18.0083 18.6812 17.9101 18.7225C17.8119 18.7638 17.7065 18.785 17.6 18.785H11C10.8935 18.785 10.7881 18.7638 10.6899 18.7225C10.5917 18.6812 10.5027 18.6208 10.4282 18.5447C10.3537 18.4686 10.2951 18.3784 10.256 18.2794C10.2168 18.1803 10.1977 18.0745 10.2 17.968V11.23C10.1977 11.1235 10.2168 11.0177 10.256 10.9186C10.2951 10.8196 10.3537 10.7294 10.4282 10.6533C10.5027 10.5772 10.5917 10.5167 10.6899 10.4755C10.7881 10.4342 10.8935 10.413 11 10.413H17.5C17.6065 10.413 17.7119 10.4342 17.8101 10.4755C17.9083 10.5167 17.9973 10.5772 18.0718 10.6533C18.1463 10.7294 18.2049 10.8196 18.2441 10.9186C18.2833 11.0177 18.3023 11.1235 18.3 11.23V17.968H18.4Z" fill="white"/>
<path d="M8.6 27.871C8.60226 27.9775 8.58324 28.0833 8.54405 28.1824C8.50486 28.2814 8.44629 28.3716 8.37178 28.4477C8.29726 28.5238 8.20831 28.5843 8.11012 28.6255C8.01194 28.6668 7.9065 28.688 7.8 28.688H1.3C1.19349 28.688 1.08806 28.6668 0.989873 28.6255C0.891688 28.5843 0.802729 28.5238 0.728216 28.4477C0.653702 28.3716 0.595133 28.2814 0.555944 28.1824C0.516755 28.0833 0.497734 27.9775 0.499998 27.871V21.235C0.497734 21.1285 0.516755 21.0227 0.555944 20.9236C0.595133 20.8246 0.653702 20.7344 0.728216 20.6583C0.802729 20.5822 0.891688 20.5217 0.989873 20.4805C1.08806 20.4392 1.19349 20.418 1.3 20.418H7.8C7.9065 20.418 8.01194 20.4392 8.11012 20.4805C8.20831 20.5217 8.29726 20.5822 8.37178 20.6583C8.44629 20.7344 8.50486 20.8246 8.54405 20.9236C8.58324 21.0227 8.60226 21.1285 8.6 21.235V27.871Z" fill="white"/>
<path d="M18.4 27.871C18.4023 27.9775 18.3832 28.0833 18.3441 28.1824C18.3049 28.2814 18.2463 28.3716 18.1718 28.4477C18.0973 28.5238 18.0083 28.5843 17.9101 28.6255C17.8119 28.6668 17.7065 28.688 17.6 28.688H11C10.8935 28.688 10.7881 28.6668 10.6899 28.6255C10.5917 28.5843 10.5027 28.5238 10.4282 28.4477C10.3537 28.3716 10.2951 28.2814 10.256 28.1824C10.2168 28.0833 10.1977 27.9775 10.2 27.871V21.235C10.1977 21.1285 10.2168 21.0227 10.256 20.9236C10.2951 20.8246 10.3537 20.7344 10.4282 20.6583C10.5027 20.5822 10.5917 20.5217 10.6899 20.4805C10.7881 20.4392 10.8935 20.418 11 20.418H17.5C17.6065 20.418 17.7119 20.4392 17.8101 20.4805C17.9083 20.5217 17.9973 20.5822 18.0718 20.6583C18.1463 20.7344 18.2049 20.8246 18.2441 20.9236C18.2833 21.0227 18.3023 21.1285 18.3 21.235V27.871H18.4Z" fill="white"/>
<path d="M8.6 37.876C8.60226 37.9825 8.58324 38.0883 8.54405 38.1874C8.50486 38.2864 8.44629 38.3766 8.37178 38.4527C8.29726 38.5288 8.20831 38.5893 8.11012 38.6305C8.01194 38.6718 7.9065 38.693 7.8 38.693H1.3C1.19349 38.693 1.08806 38.6718 0.989873 38.6305C0.891688 38.5893 0.802729 38.5288 0.728216 38.4527C0.653702 38.3766 0.595133 38.2864 0.555944 38.1874C0.516755 38.0883 0.497734 37.9825 0.499998 37.876V31.24C0.497734 31.1335 0.516755 31.0277 0.555944 30.9286C0.595133 30.8296 0.653702 30.7394 0.728216 30.6633C0.802729 30.5872 0.891688 30.5267 0.989873 30.4855C1.08806 30.4442 1.19349 30.423 1.3 30.423H7.8C7.9065 30.423 8.01194 30.4442 8.11012 30.4855C8.20831 30.5267 8.29726 30.5872 8.37178 30.6633C8.44629 30.7394 8.50486 30.8296 8.54405 30.9286C8.58324 31.0277 8.60226 31.1335 8.6 31.24V37.876Z" fill="white"/>
<path d="M18.4 37.876C18.4023 37.9825 18.3832 38.0883 18.3441 38.1874C18.3049 38.2864 18.2463 38.3766 18.1718 38.4527C18.0973 38.5288 18.0083 38.5893 17.9101 38.6305C17.8119 38.6718 17.7065 38.693 17.6 38.693H11C10.8935 38.693 10.7881 38.6718 10.6899 38.6305C10.5917 38.5893 10.5027 38.5288 10.4282 38.4527C10.3537 38.3766 10.2951 38.2864 10.256 38.1874C10.2168 38.0883 10.1977 37.9825 10.2 37.876V31.24C10.1977 31.1335 10.2168 31.0277 10.256 30.9286C10.2951 30.8296 10.3537 30.7394 10.4282 30.6633C10.5027 30.5872 10.5917 30.5267 10.6899 30.4855C10.7881 30.4442 10.8935 30.423 11 30.423H17.5C17.6065 30.423 17.7119 30.4442 17.8101 30.4855C17.9083 30.5267 17.9973 30.5872 18.0718 30.6633C18.1463 30.7394 18.2049 30.8296 18.2441 30.9286C18.2833 31.0277 18.3023 31.1335 18.3 31.24V37.876H18.4Z" fill="white"/>
<path d="M9 4.594C8.98149 5.47978 8.70192 6.34039 8.19634 7.06794C7.69076 7.79549 6.98166 8.35761 6.15794 8.68384C5.33421 9.01006 4.43252 9.08588 3.56588 8.90177C2.69925 8.71767 1.90625 8.28184 1.28628 7.64892C0.666311 7.016 0.246969 6.21416 0.0808187 5.34391C-0.0853319 4.47365 0.00910085 3.57372 0.352284 2.75691C0.695467 1.94011 1.27213 1.24278 2.00998 0.752346C2.74782 0.261911 3.61403 0.000193316 4.5 0C5.09782 0.00376629 5.68898 0.125853 6.23938 0.359221C6.78978 0.592588 7.28854 0.932617 7.70688 1.3597C8.12522 1.78677 8.45487 2.29245 8.67681 2.84756C8.89875 3.40267 9.00859 3.99623 9 4.594Z" fill="white"/>
<path d="M33.7073 17.268V9.41547H35.3723V17.268H33.7073ZM44.3152 17.268H42.199L38.783 11.3276H38.7346C38.8027 12.3767 38.8367 13.1251 38.8367 13.5727V17.268H37.3489V9.41547H39.449L42.8596 15.2968H42.8972C42.8435 14.2763 42.8167 13.5548 42.8167 13.1323V9.41547H44.3152V17.268ZM50.9324 15.0873C50.9324 15.7963 50.6764 16.3549 50.1643 16.7631C49.6558 17.1713 48.9469 17.3754 48.0374 17.3754C47.1995 17.3754 46.4583 17.2179 45.8137 16.9028V15.3559C46.3437 15.5922 46.7913 15.7587 47.1565 15.8554C47.5253 15.9521 47.8619 16.0004 48.1663 16.0004C48.5315 16.0004 48.8108 15.9306 49.0042 15.791C49.2011 15.6513 49.2996 15.4436 49.2996 15.1679C49.2996 15.0139 49.2566 14.8779 49.1707 14.7597C49.0847 14.638 48.9576 14.5216 48.7893 14.4106C48.6246 14.2996 48.2862 14.1223 47.7742 13.8788C47.2944 13.6533 46.9345 13.4366 46.6946 13.2289C46.4547 13.0213 46.2631 12.7796 46.1199 12.5038C45.9766 12.2281 45.905 11.9059 45.905 11.537C45.905 10.8424 46.1396 10.2963 46.6086 9.89886C47.0813 9.5014 47.733 9.30267 48.5637 9.30267C48.9719 9.30267 49.3604 9.35101 49.7292 9.44769C50.1016 9.54437 50.4902 9.68044 50.8948 9.8559L50.3577 11.1503C49.9387 10.9785 49.5914 10.8585 49.3157 10.7905C49.0435 10.7224 48.775 10.6884 48.51 10.6884C48.1949 10.6884 47.9532 10.7618 47.7849 10.9086C47.6166 11.0554 47.5325 11.247 47.5325 11.4833C47.5325 11.6301 47.5665 11.7591 47.6345 11.8701C47.7026 11.9775 47.81 12.0831 47.9568 12.187C48.1072 12.2872 48.4599 12.4698 49.0149 12.7348C49.7489 13.0857 50.252 13.4384 50.5242 13.7929C50.7963 14.1438 50.9324 14.5753 50.9324 15.0873ZM55.385 17.268H53.72V10.8012H51.5876V9.41547H57.5173V10.8012H55.385V17.268ZM58.7258 17.268V9.41547H60.3909V17.268H58.7258ZM65.3967 17.268H63.7317V10.8012H61.5994V9.41547H67.5291V10.8012H65.3967V17.268ZM75.1292 9.41547V14.4965C75.1292 15.0766 74.9985 15.5851 74.7371 16.0219C74.4792 16.4588 74.1051 16.7936 73.6145 17.0263C73.1239 17.2591 72.5439 17.3754 71.8743 17.3754C70.8645 17.3754 70.0803 17.1176 69.5217 16.602C68.9631 16.0828 68.6838 15.3738 68.6838 14.475V9.41547H70.3435V14.2226C70.3435 14.8277 70.4653 15.2717 70.7087 15.5546C70.9522 15.8375 71.3551 15.9789 71.9172 15.9789C72.4615 15.9789 72.8554 15.8375 73.0989 15.5546C73.3459 15.2682 73.4695 14.8206 73.4695 14.2119V9.41547H75.1292ZM80.0813 17.268H78.4163V10.8012H76.2839V9.41547H82.2136V10.8012H80.0813V17.268ZM90.5496 13.331C90.5496 14.6308 90.2273 15.6298 89.5828 16.3281C88.9382 17.0263 88.0144 17.3754 86.8113 17.3754C85.6082 17.3754 84.6843 17.0263 84.0398 16.3281C83.3953 15.6298 83.073 14.6272 83.073 13.3203C83.073 12.0133 83.3953 11.0161 84.0398 10.3286C84.6879 9.63747 85.6153 9.29193 86.822 9.29193C88.0287 9.29193 88.9508 9.63926 89.5881 10.3339C90.2291 11.0286 90.5496 12.0276 90.5496 13.331ZM84.8186 13.331C84.8186 14.2083 84.9851 14.8689 85.3181 15.3129C85.6511 15.7569 86.1488 15.9789 86.8113 15.9789C88.1397 15.9789 88.804 15.0963 88.804 13.331C88.804 11.5621 88.1433 10.6777 86.822 10.6777C86.1596 10.6777 85.6601 10.9015 85.3235 11.3491C84.9869 11.7931 84.8186 12.4537 84.8186 13.331ZM96.6726 17.268H95.0344V9.41547H99.5354V10.7797H96.6726V12.8046H99.3367V14.1635H96.6726V17.268ZM105.594 17.268H101.072V9.41547H105.594V10.7797H102.737V12.5038H105.395V13.8681H102.737V15.893H105.594V17.268ZM113.753 13.2665C113.753 14.5592 113.384 15.5493 112.646 16.2368C111.912 16.9243 110.851 17.268 109.461 17.268H107.238V9.41547H109.703C110.985 9.41547 111.98 9.75385 112.689 10.4306C113.398 11.1074 113.753 12.0527 113.753 13.2665ZM112.023 13.3095C112.023 11.623 111.278 10.7797 109.789 10.7797H108.903V15.893H109.617C111.221 15.893 112.023 15.0318 112.023 13.3095ZM119.903 17.268H115.38V9.41547H119.903V10.7797H117.045V12.5038H119.704V13.8681H117.045V15.893H119.903V17.268ZM123.211 12.9013H123.748C124.275 12.9013 124.663 12.8136 124.914 12.6381C125.164 12.4627 125.29 12.187 125.29 11.811C125.29 11.4386 125.161 11.1736 124.903 11.0161C124.649 10.8585 124.253 10.7797 123.716 10.7797H123.211V12.9013ZM123.211 14.2548V17.268H121.546V9.41547H123.834C124.901 9.41547 125.691 9.61062 126.203 10.0009C126.715 10.3876 126.971 10.9767 126.971 11.768C126.971 12.2299 126.844 12.6417 126.59 13.0034C126.335 13.3614 125.976 13.6425 125.51 13.8466C126.692 15.6119 127.462 16.7524 127.82 17.268H125.972L124.097 14.2548H123.211ZM133.615 17.268L133.046 15.3989H130.183L129.614 17.268H127.82L130.591 9.38324H132.627L135.409 17.268H133.615ZM132.648 14.0024C132.122 12.3087 131.825 11.3509 131.757 11.1288C131.692 10.9068 131.646 10.7314 131.617 10.6025C131.499 11.0608 131.16 12.1941 130.602 14.0024H132.648ZM136.403 17.268V9.41547H138.068V15.893H141.253V17.268H136.403ZM34.1682 25.893V28.268H33.5042V22.5571H35.0706C35.7711 22.5571 36.288 22.6912 36.6213 22.9594C36.9573 23.2276 37.1252 23.6313 37.1252 24.1703C37.1252 24.9256 36.7424 25.436 35.9768 25.7016L37.5276 28.268H36.7424L35.3596 25.893H34.1682ZM34.1682 25.3227H35.0784C35.5471 25.3227 35.8909 25.2302 36.1096 25.0453C36.3284 24.8578 36.4377 24.5779 36.4377 24.2055C36.4377 23.8279 36.3258 23.5558 36.1018 23.3891C35.8805 23.2224 35.5237 23.1391 35.0315 23.1391H34.1682V25.3227ZM39.0002 28.268H38.3518V23.9868H39.0002V28.268ZM38.2971 22.8266C38.2971 22.6782 38.3336 22.5701 38.4065 22.5024C38.4794 22.4321 38.5706 22.3969 38.6799 22.3969C38.7841 22.3969 38.8739 22.4321 38.9495 22.5024C39.025 22.5727 39.0627 22.6808 39.0627 22.8266C39.0627 22.9724 39.025 23.0818 38.9495 23.1547C38.8739 23.225 38.7841 23.2602 38.6799 23.2602C38.5706 23.2602 38.4794 23.225 38.4065 23.1547C38.3336 23.0818 38.2971 22.9724 38.2971 22.8266ZM44.0706 26.1235C44.0706 26.8214 43.8948 27.367 43.5432 27.7602C43.1917 28.1508 42.706 28.3461 42.0862 28.3461C41.7034 28.3461 41.3635 28.2563 41.0667 28.0766C40.7698 27.8969 40.5406 27.6391 40.3792 27.3032C40.2177 26.9672 40.137 26.574 40.137 26.1235C40.137 25.4256 40.3114 24.8826 40.6604 24.4946C41.0094 24.1039 41.4937 23.9086 42.1135 23.9086C42.7125 23.9086 43.1877 24.1078 43.5393 24.5063C43.8935 24.9047 44.0706 25.4438 44.0706 26.1235ZM40.8088 26.1235C40.8088 26.6703 40.9182 27.087 41.137 27.3735C41.3557 27.6599 41.6773 27.8032 42.1018 27.8032C42.5263 27.8032 42.8479 27.6612 43.0667 27.3774C43.288 27.0909 43.3987 26.673 43.3987 26.1235C43.3987 25.5792 43.288 25.1664 43.0667 24.8852C42.8479 24.6013 42.5237 24.4594 42.094 24.4594C41.6695 24.4594 41.3492 24.5987 41.1331 24.8774C40.9169 25.156 40.8088 25.5714 40.8088 26.1235ZM49.8987 25.2758H51.8401V28.0532C51.538 28.1495 51.2307 28.2224 50.9182 28.2719C50.6057 28.3214 50.2437 28.3461 49.8323 28.3461C48.9677 28.3461 48.2945 28.0896 47.8127 27.5766C47.331 27.061 47.0901 26.3396 47.0901 25.4125C47.0901 24.8188 47.2086 24.2993 47.4456 23.8539C47.6851 23.406 48.0289 23.0649 48.4768 22.8305C48.9247 22.5935 49.4495 22.475 50.051 22.475C50.6604 22.475 51.2281 22.587 51.7542 22.811L51.4963 23.3969C50.9807 23.1782 50.4846 23.0688 50.0081 23.0688C49.3127 23.0688 48.7698 23.2758 48.3792 23.6899C47.9885 24.1039 47.7932 24.6782 47.7932 25.4125C47.7932 26.1834 47.9807 26.768 48.3557 27.1664C48.7333 27.5649 49.2867 27.7641 50.0159 27.7641C50.4117 27.7641 50.7984 27.7185 51.176 27.6274V25.8696H49.8987V25.2758ZM55.0706 23.9086C55.2607 23.9086 55.4312 23.9243 55.5823 23.9555L55.4924 24.5571C55.3153 24.518 55.1591 24.4985 55.0237 24.4985C54.6773 24.4985 54.3805 24.6391 54.1331 24.9203C53.8883 25.2016 53.7659 25.5519 53.7659 25.9711V28.268H53.1174V23.9868H53.6526L53.7268 24.7797H53.7581C53.9169 24.5011 54.1083 24.2862 54.3323 24.1352C54.5562 23.9842 54.8023 23.9086 55.0706 23.9086ZM59.0159 28.268L58.887 27.6586H58.8557C58.6422 27.9269 58.4286 28.1092 58.2151 28.2055C58.0042 28.2993 57.7398 28.3461 57.4221 28.3461C56.9976 28.3461 56.6643 28.2368 56.4221 28.018C56.1825 27.7993 56.0627 27.4881 56.0627 27.0844C56.0627 26.2198 56.7542 25.7667 58.137 25.725L58.8635 25.7016V25.436C58.8635 25.1 58.7906 24.8526 58.6448 24.6938C58.5015 24.5323 58.2711 24.4516 57.9534 24.4516C57.5966 24.4516 57.193 24.561 56.7424 24.7797L56.5432 24.2836C56.7542 24.169 56.9846 24.0792 57.2346 24.0141C57.4872 23.949 57.7398 23.9164 57.9924 23.9164C58.5028 23.9164 58.8805 24.0297 59.1252 24.2563C59.3726 24.4828 59.4963 24.8461 59.4963 25.3461V28.268H59.0159ZM57.551 27.811C57.9547 27.811 58.2711 27.7003 58.5002 27.4789C58.732 27.2576 58.8479 26.9477 58.8479 26.5493V26.1625L58.1995 26.1899C57.6838 26.2081 57.3114 26.2888 57.0823 26.4321C56.8557 26.5727 56.7424 26.7927 56.7424 27.0922C56.7424 27.3266 56.8127 27.505 56.9534 27.6274C57.0966 27.7498 57.2958 27.811 57.551 27.811ZM63.7659 28.268V25.4985C63.7659 25.1495 63.6864 24.8891 63.5276 24.7172C63.3687 24.5453 63.12 24.4594 62.7815 24.4594C62.3336 24.4594 62.0055 24.5805 61.7971 24.8227C61.5888 25.0649 61.4846 25.4646 61.4846 26.0219V28.268H60.8362V23.9868H61.3635L61.469 24.5727H61.5002C61.6331 24.3618 61.8193 24.199 62.0588 24.0844C62.2984 23.9672 62.5653 23.9086 62.8596 23.9086C63.3752 23.9086 63.7633 24.0336 64.0237 24.2836C64.2841 24.531 64.4143 24.9282 64.4143 25.475V28.268H63.7659ZM68.6643 27.6938H68.6292C68.3297 28.1287 67.8818 28.3461 67.2854 28.3461C66.7255 28.3461 66.2893 28.1547 65.9768 27.7719C65.6669 27.3891 65.512 26.8448 65.512 26.1391C65.512 25.4334 65.6682 24.8852 65.9807 24.4946C66.2932 24.1039 66.7281 23.9086 67.2854 23.9086C67.8661 23.9086 68.3114 24.1196 68.6213 24.5414H68.6721L68.6448 24.2328L68.6292 23.9321V22.1899H69.2776V28.268H68.7502L68.6643 27.6938ZM67.3674 27.8032C67.8101 27.8032 68.1305 27.6834 68.3284 27.4438C68.5289 27.2016 68.6292 26.8123 68.6292 26.2758V26.1391C68.6292 25.5323 68.5276 25.1 68.3245 24.8422C68.1239 24.5818 67.8023 24.4516 67.3596 24.4516C66.9794 24.4516 66.6877 24.6 66.4846 24.8969C66.2841 25.1912 66.1838 25.6078 66.1838 26.1469C66.1838 26.6938 66.2841 27.1065 66.4846 27.3852C66.6851 27.6638 66.9794 27.8032 67.3674 27.8032ZM72.4651 28.3461C71.8323 28.3461 71.3323 28.1534 70.9651 27.768C70.6005 27.3826 70.4182 26.8474 70.4182 26.1625C70.4182 25.4724 70.5875 24.9243 70.926 24.518C71.2672 24.1118 71.7242 23.9086 72.2971 23.9086C72.8336 23.9086 73.2581 24.0857 73.5706 24.4399C73.8831 24.7914 74.0393 25.2563 74.0393 25.8344V26.2446H71.0901C71.1031 26.7472 71.2294 27.1287 71.469 27.3891C71.7112 27.6495 72.051 27.7797 72.4885 27.7797C72.9495 27.7797 73.4052 27.6834 73.8557 27.4907V28.0688C73.6265 28.1677 73.4091 28.2381 73.2034 28.2797C73.0002 28.324 72.7542 28.3461 72.4651 28.3461ZM72.2893 24.4516C71.9456 24.4516 71.6708 24.5636 71.4651 24.7875C71.262 25.0115 71.1422 25.3214 71.1057 25.7172H73.344C73.344 25.3084 73.2528 24.9959 73.0706 24.7797C72.8883 24.561 72.6278 24.4516 72.2893 24.4516ZM80.1409 27.6938H80.1057C79.8062 28.1287 79.3583 28.3461 78.762 28.3461C78.2021 28.3461 77.7659 28.1547 77.4534 27.7719C77.1435 27.3891 76.9885 26.8448 76.9885 26.1391C76.9885 25.4334 77.1448 24.8852 77.4573 24.4946C77.7698 24.1039 78.2047 23.9086 78.762 23.9086C79.3427 23.9086 79.788 24.1196 80.0979 24.5414H80.1487L80.1213 24.2328L80.1057 23.9321V22.1899H80.7542V28.268H80.2268L80.1409 27.6938ZM78.844 27.8032C79.2867 27.8032 79.607 27.6834 79.8049 27.4438C80.0055 27.2016 80.1057 26.8123 80.1057 26.2758V26.1391C80.1057 25.5323 80.0042 25.1 79.801 24.8422C79.6005 24.5818 79.2789 24.4516 78.8362 24.4516C78.456 24.4516 78.1643 24.6 77.9612 24.8969C77.7607 25.1912 77.6604 25.6078 77.6604 26.1469C77.6604 26.6938 77.7607 27.1065 77.9612 27.3852C78.1617 27.6638 78.456 27.8032 78.844 27.8032ZM85.8284 26.1235C85.8284 26.8214 85.6526 27.367 85.301 27.7602C84.9495 28.1508 84.4638 28.3461 83.844 28.3461C83.4612 28.3461 83.1213 28.2563 82.8245 28.0766C82.5276 27.8969 82.2984 27.6391 82.137 27.3032C81.9755 26.9672 81.8948 26.574 81.8948 26.1235C81.8948 25.4256 82.0693 24.8826 82.4182 24.4946C82.7672 24.1039 83.2515 23.9086 83.8713 23.9086C84.4703 23.9086 84.9456 24.1078 85.2971 24.5063C85.6513 24.9047 85.8284 25.4438 85.8284 26.1235ZM82.5667 26.1235C82.5667 26.6703 82.676 27.087 82.8948 27.3735C83.1135 27.6599 83.4351 27.8032 83.8596 27.8032C84.2841 27.8032 84.6057 27.6612 84.8245 27.3774C85.0458 27.0909 85.1565 26.673 85.1565 26.1235C85.1565 25.5792 85.0458 25.1664 84.8245 24.8852C84.6057 24.6013 84.2815 24.4594 83.8518 24.4594C83.4273 24.4594 83.107 24.5987 82.8909 24.8774C82.6747 25.156 82.5667 25.5714 82.5667 26.1235ZM93.6057 28.268H92.8479L89.7268 23.475H89.6956C89.7372 24.0375 89.7581 24.5532 89.7581 25.0219V28.268H89.1448V22.5571H89.8948L93.0081 27.3305H93.0393C93.0341 27.2602 93.0224 27.0349 93.0042 26.6547C92.9859 26.2719 92.9794 25.9985 92.9846 25.8344V22.5571H93.6057V28.268ZM98.7737 26.1235C98.7737 26.8214 98.5979 27.367 98.2463 27.7602C97.8948 28.1508 97.4091 28.3461 96.7893 28.3461C96.4065 28.3461 96.0667 28.2563 95.7698 28.0766C95.4729 27.8969 95.2437 27.6391 95.0823 27.3032C94.9208 26.9672 94.8401 26.574 94.8401 26.1235C94.8401 25.4256 95.0146 24.8826 95.3635 24.4946C95.7125 24.1039 96.1969 23.9086 96.8167 23.9086C97.4156 23.9086 97.8909 24.1078 98.2424 24.5063C98.5966 24.9047 98.7737 25.4438 98.7737 26.1235ZM95.512 26.1235C95.512 26.6703 95.6213 27.087 95.8401 27.3735C96.0588 27.6599 96.3805 27.8032 96.8049 27.8032C97.2294 27.8032 97.551 27.6612 97.7698 27.3774C97.9911 27.0909 98.1018 26.673 98.1018 26.1235C98.1018 25.5792 97.9911 25.1664 97.7698 24.8852C97.551 24.6013 97.2268 24.4594 96.7971 24.4594C96.3726 24.4594 96.0523 24.5987 95.8362 24.8774C95.62 25.156 95.512 25.5714 95.512 26.1235ZM101.867 23.9086C102.058 23.9086 102.228 23.9243 102.379 23.9555L102.289 24.5571C102.112 24.518 101.956 24.4985 101.821 24.4985C101.474 24.4985 101.177 24.6391 100.93 24.9203C100.685 25.2016 100.563 25.5519 100.563 25.9711V28.268H99.9143V23.9868H100.449L100.524 24.7797H100.555C100.714 24.5011 100.905 24.2862 101.129 24.1352C101.353 23.9842 101.599 23.9086 101.867 23.9086ZM104.563 27.811C104.677 27.811 104.788 27.8032 104.895 27.7875C105.002 27.7693 105.086 27.7511 105.149 27.7328V28.2289C105.078 28.2628 104.974 28.2901 104.836 28.311C104.701 28.3344 104.578 28.3461 104.469 28.3461C103.641 28.3461 103.227 27.9099 103.227 27.0375V24.4907H102.614V24.1782L103.227 23.9086L103.5 22.9946H103.875V23.9868H105.117V24.4907H103.875V27.0102C103.875 27.268 103.936 27.4659 104.059 27.6039C104.181 27.742 104.349 27.811 104.563 27.811ZM107.817 28.3461C107.184 28.3461 106.684 28.1534 106.317 27.768C105.952 27.3826 105.77 26.8474 105.77 26.1625C105.77 25.4724 105.939 24.9243 106.278 24.518C106.619 24.1118 107.076 23.9086 107.649 23.9086C108.185 23.9086 108.61 24.0857 108.922 24.4399C109.235 24.7914 109.391 25.2563 109.391 25.8344V26.2446H106.442C106.455 26.7472 106.581 27.1287 106.821 27.3891C107.063 27.6495 107.403 27.7797 107.84 27.7797C108.301 27.7797 108.757 27.6834 109.207 27.4907V28.0688C108.978 28.1677 108.761 28.2381 108.555 28.2797C108.352 28.324 108.106 28.3461 107.817 28.3461ZM107.641 24.4516C107.297 24.4516 107.022 24.5636 106.817 24.7875C106.614 25.0115 106.494 25.3214 106.457 25.7172H108.696C108.696 25.3084 108.604 24.9959 108.422 24.7797C108.24 24.561 107.979 24.4516 107.641 24.4516ZM35.9495 34.0688C35.3219 34.0688 34.8258 34.2784 34.4612 34.6977C34.0992 35.1144 33.9182 35.686 33.9182 36.4125C33.9182 37.1599 34.0927 37.7381 34.4417 38.1469C34.7932 38.5532 35.2932 38.7563 35.9417 38.7563C36.3401 38.7563 36.7945 38.6847 37.3049 38.5414V39.1235C36.9091 39.2719 36.4208 39.3461 35.8401 39.3461C34.9989 39.3461 34.3492 39.0909 33.8909 38.5805C33.4351 38.0701 33.2073 37.3448 33.2073 36.4047C33.2073 35.8162 33.3167 35.3006 33.5354 34.8578C33.7568 34.4151 34.0745 34.074 34.4885 33.8344C34.9052 33.5948 35.3948 33.475 35.9573 33.475C36.5562 33.475 37.0797 33.5844 37.5276 33.8032L37.2463 34.3735C36.814 34.1703 36.3818 34.0688 35.9495 34.0688ZM41.0862 39.268L40.9573 38.6586H40.926C40.7125 38.9269 40.4989 39.1092 40.2854 39.2055C40.0745 39.2993 39.8101 39.3461 39.4924 39.3461C39.068 39.3461 38.7346 39.2368 38.4924 39.018C38.2528 38.7993 38.1331 38.4881 38.1331 38.0844C38.1331 37.2198 38.8245 36.7667 40.2073 36.725L40.9338 36.7016V36.436C40.9338 36.1 40.8609 35.8526 40.7151 35.6938C40.5719 35.5323 40.3414 35.4516 40.0237 35.4516C39.6669 35.4516 39.2633 35.561 38.8127 35.7797L38.6135 35.2836C38.8245 35.169 39.0549 35.0792 39.3049 35.0141C39.5575 34.949 39.8101 34.9164 40.0627 34.9164C40.5732 34.9164 40.9508 35.0297 41.1956 35.2563C41.443 35.4828 41.5667 35.8461 41.5667 36.3461V39.268H41.0862ZM39.6213 38.811C40.025 38.811 40.3414 38.7003 40.5706 38.4789C40.8023 38.2576 40.9182 37.9477 40.9182 37.5493V37.1625L40.2698 37.1899C39.7542 37.2081 39.3818 37.2888 39.1526 37.4321C38.926 37.5727 38.8127 37.7927 38.8127 38.0922C38.8127 38.3266 38.8831 38.505 39.0237 38.6274C39.1669 38.7498 39.3661 38.811 39.6213 38.811ZM48.3635 39.268V36.4828C48.3635 36.1417 48.2906 35.8865 48.1448 35.7172C47.9989 35.5453 47.7724 35.4594 47.4651 35.4594C47.0614 35.4594 46.7633 35.5753 46.5706 35.8071C46.3778 36.0388 46.2815 36.3956 46.2815 36.8774V39.268H45.6331V36.4828C45.6331 36.1417 45.5601 35.8865 45.4143 35.7172C45.2685 35.5453 45.0406 35.4594 44.7307 35.4594C44.3245 35.4594 44.0263 35.5818 43.8362 35.8266C43.6487 36.0688 43.5549 36.4672 43.5549 37.0219V39.268H42.9065V34.9868H43.4338L43.5393 35.5727H43.5706C43.693 35.3644 43.8648 35.2016 44.0862 35.0844C44.3101 34.9672 44.5601 34.9086 44.8362 34.9086C45.5055 34.9086 45.943 35.1508 46.1487 35.6352H46.1799C46.3075 35.4112 46.4924 35.2342 46.7346 35.1039C46.9768 34.9737 47.2528 34.9086 47.5627 34.9086C48.0471 34.9086 48.4091 35.0336 48.6487 35.2836C48.8909 35.531 49.012 35.9282 49.012 36.475V39.268H48.3635ZM52.344 39.3461C52.0653 39.3461 51.8101 39.2953 51.5784 39.1938C51.3492 39.0896 51.1565 38.9308 51.0002 38.7172H50.9534C50.9846 38.9672 51.0002 39.2042 51.0002 39.4282V41.1899H50.3518V34.9868H50.8792L50.969 35.5727H51.0002C51.1669 35.3383 51.3609 35.169 51.5823 35.0649C51.8036 34.9607 52.0575 34.9086 52.344 34.9086C52.9117 34.9086 53.3492 35.1026 53.6565 35.4907C53.9664 35.8787 54.1213 36.423 54.1213 37.1235C54.1213 37.8266 53.9638 38.3735 53.6487 38.7641C53.3362 39.1521 52.9013 39.3461 52.344 39.3461ZM52.2502 35.4594C51.8127 35.4594 51.4963 35.5805 51.301 35.8227C51.1057 36.0649 51.0055 36.4503 51.0002 36.9789V37.1235C51.0002 37.725 51.1005 38.156 51.301 38.4164C51.5015 38.6743 51.8232 38.8032 52.2659 38.8032C52.6357 38.8032 52.9247 38.6534 53.1331 38.3539C53.344 38.0545 53.4495 37.6417 53.4495 37.1157C53.4495 36.5818 53.344 36.173 53.1331 35.8891C52.9247 35.6026 52.6305 35.4594 52.2502 35.4594ZM55.8674 34.9868V37.7641C55.8674 38.1131 55.9469 38.3735 56.1057 38.5453C56.2646 38.7172 56.5133 38.8032 56.8518 38.8032C57.2997 38.8032 57.6265 38.6808 57.8323 38.436C58.0406 38.1912 58.1448 37.7914 58.1448 37.2368V34.9868H58.7932V39.268H58.2581L58.1643 38.6938H58.1292C57.9963 38.9047 57.8114 39.0662 57.5745 39.1782C57.3401 39.2901 57.0719 39.3461 56.7698 39.3461C56.2489 39.3461 55.8583 39.2224 55.5979 38.975C55.3401 38.7276 55.2112 38.3318 55.2112 37.7875V34.9868H55.8674ZM62.9338 38.1C62.9338 38.4985 62.7854 38.8058 62.4885 39.0219C62.1917 39.2381 61.775 39.3461 61.2385 39.3461C60.6708 39.3461 60.2281 39.2563 59.9104 39.0766V38.475C60.1161 38.5792 60.3362 38.6612 60.5706 38.7211C60.8075 38.781 61.0354 38.811 61.2542 38.811C61.5927 38.811 61.8531 38.7576 62.0354 38.6508C62.2177 38.5414 62.3088 38.3761 62.3088 38.1547C62.3088 37.9881 62.2359 37.8461 62.0901 37.7289C61.9469 37.6092 61.6656 37.4685 61.2463 37.3071C60.8479 37.1586 60.564 37.0297 60.3948 36.9203C60.2281 36.8084 60.1031 36.6821 60.0198 36.5414C59.939 36.4008 59.8987 36.2328 59.8987 36.0375C59.8987 35.6886 60.0406 35.4138 60.3245 35.2133C60.6083 35.0102 60.9976 34.9086 61.4924 34.9086C61.9534 34.9086 62.4039 35.0024 62.844 35.1899L62.6135 35.7172C62.1838 35.5401 61.7945 35.4516 61.4456 35.4516C61.1383 35.4516 60.9065 35.4998 60.7502 35.5961C60.594 35.6925 60.5159 35.8253 60.5159 35.9946C60.5159 36.1092 60.5445 36.2068 60.6018 36.2875C60.6617 36.3683 60.7568 36.4451 60.887 36.518C61.0172 36.5909 61.2672 36.6964 61.637 36.8344C62.1448 37.0193 62.4872 37.2055 62.6643 37.393C62.844 37.5805 62.9338 37.8162 62.9338 38.1ZM69.3518 39.268H66.1682V33.5571H69.3518V34.1469H66.8323V35.9868H69.1995V36.5727H66.8323V38.6743H69.3518V39.268ZM73.1565 39.268L73.0276 38.6586H72.9963C72.7828 38.9269 72.5693 39.1092 72.3557 39.2055C72.1448 39.2993 71.8805 39.3461 71.5627 39.3461C71.1383 39.3461 70.8049 39.2368 70.5627 39.018C70.3232 38.7993 70.2034 38.4881 70.2034 38.0844C70.2034 37.2198 70.8948 36.7667 72.2776 36.725L73.0042 36.7016V36.436C73.0042 36.1 72.9312 35.8526 72.7854 35.6938C72.6422 35.5323 72.4117 35.4516 72.094 35.4516C71.7372 35.4516 71.3336 35.561 70.8831 35.7797L70.6838 35.2836C70.8948 35.169 71.1252 35.0792 71.3752 35.0141C71.6278 34.949 71.8805 34.9164 72.1331 34.9164C72.6435 34.9164 73.0211 35.0297 73.2659 35.2563C73.5133 35.4828 73.637 35.8461 73.637 36.3461V39.268H73.1565ZM71.6917 38.811C72.0953 38.811 72.4117 38.7003 72.6409 38.4789C72.8726 38.2576 72.9885 37.9477 72.9885 37.5493V37.1625L72.3401 37.1899C71.8245 37.2081 71.4521 37.2888 71.2229 37.4321C70.9963 37.5727 70.8831 37.7927 70.8831 38.0922C70.8831 38.3266 70.9534 38.505 71.094 38.6274C71.2372 38.7498 71.4364 38.811 71.6917 38.811ZM79.6331 36.3578C79.6331 37.3006 79.3765 38.0219 78.8635 38.5219C78.3531 39.0193 77.6174 39.268 76.6565 39.268H75.0745V33.5571H76.8245C77.7125 33.5571 78.4026 33.8032 78.8948 34.2953C79.387 34.7875 79.6331 35.475 79.6331 36.3578ZM78.9299 36.3813C78.9299 35.6365 78.7424 35.0753 78.3674 34.6977C77.995 34.3201 77.4403 34.1313 76.7034 34.1313H75.7385V38.6938H76.5471C77.3388 38.6938 77.9338 38.4998 78.3323 38.1118C78.7307 37.7211 78.9299 37.1443 78.9299 36.3813Z" fill="white"/>
</svg>
