<?xml version="1.0" encoding="UTF-8"?><svg id="Camada_1" xmlns="http://www.w3.org/2000/svg" viewBox="0 0 737.42 246.74"><defs><style>.cls-1,.cls-2,.cls-3,.cls-4{fill:#fff;}.cls-2{font-family:OpenSans-Bold, 'Open Sans';font-size:52.04px;font-weight:700;}.cls-3{font-size:39.32px;}.cls-3,.cls-4{font-family:OpenSans, 'Open Sans';}.cls-4{font-size:39.32px;}</style></defs><g id="Logo-IFRN-White"><path class="cls-1" d="m85.81,37.34h30.09c2.01,0,3.63,1.63,3.63,3.63v30.09c0,2.01-1.63,3.63-3.63,3.63h-30.09c-2.01,0-3.64-1.63-3.64-3.64v-30.09c0-2.01,1.63-3.63,3.63-3.63Z"/><path class="cls-1" d="m130.64,37.34h30.09c2.01,0,3.64,1.63,3.64,3.64v30.09c0,2.01-1.63,3.63-3.63,3.63h-30.09c-2.01,0-3.64-1.63-3.64-3.64v-30.09c0-2.01,1.63-3.63,3.63-3.63Z"/><path class="cls-1" d="m130.64,127.01h30.09c2.01,0,3.64,1.63,3.64,3.64v30.09c0,2.01-1.63,3.64-3.64,3.64h-30.09c-2.01,0-3.64-1.63-3.64-3.64v-30.09c0-2.01,1.63-3.63,3.63-3.63Z"/><path class="cls-1" d="m74.7,115.88c0,2-1.63,3.63-3.64,3.63h-30.09c-2.01,0-3.64-1.63-3.64-3.63v-30.09c0-2.01,1.63-3.64,3.64-3.64h30.09c2.01,0,3.64,1.63,3.64,3.64v30.09Z"/><path class="cls-1" d="m85.81,82.15h30.09c2.01,0,3.63,1.63,3.63,3.63v30.09c0,2.01-1.63,3.64-3.64,3.64h-30.09c-2.01,0-3.64-1.63-3.64-3.64v-30.09c0-2,1.63-3.63,3.63-3.63Z"/><path class="cls-1" d="m74.7,160.74c0,2.01-1.63,3.63-3.64,3.63h-30.09c-2.01,0-3.64-1.63-3.64-3.63v-30.09c0-2.01,1.63-3.64,3.64-3.64h30.09c2.01,0,3.64,1.63,3.64,3.64v30.09Z"/><path class="cls-1" d="m85.81,127.01h30.09c2.01,0,3.63,1.63,3.63,3.63v30.09c0,2.01-1.63,3.64-3.64,3.64h-30.09c-2.01,0-3.64-1.63-3.64-3.64v-30.09c0-2.01,1.63-3.63,3.63-3.63Z"/><path class="cls-1" d="m74.7,205.62c0,2.01-1.63,3.63-3.64,3.63h-30.09c-2.01,0-3.64-1.63-3.64-3.63v-30.09c0-2.01,1.63-3.63,3.64-3.63h30.09c2.01,0,3.64,1.63,3.64,3.63v30.09Z"/><rect class="cls-1" x="82.18" y="171.89" width="37.36" height="37.36" rx="3.63" ry="3.63"/><path class="cls-1" d="m130.67,127h30.07c2.01,0,3.63,1.63,3.63,3.63v30.07c0,2.01-1.63,3.64-3.64,3.64h-30.07c-2.01,0-3.64-1.63-3.64-3.64v-30.07c0-2,1.63-3.63,3.63-3.63Z"/><path class="cls-1" d="m119.56,71.09c0,2.01-1.63,3.63-3.64,3.63h-30.07c-2.01,0-3.63-1.63-3.63-3.63v-30.07c0-2.01,1.62-3.63,3.63-3.63h30.07c2.01,0,3.64,1.62,3.64,3.63v30.07Z"/><path class="cls-1" d="m164.37,71.09c0,2.01-1.63,3.63-3.64,3.63h-30.07c-2.01,0-3.63-1.63-3.63-3.63v-30.07c0-2.01,1.62-3.63,3.63-3.63h30.07c2.01,0,3.64,1.62,3.64,3.63v30.07Z"/><path class="cls-1" d="m74.76,115.87c0,2.01-1.63,3.63-3.63,3.63h-30.07c-2.01,0-3.63-1.63-3.63-3.63v-30.07c0-2.01,1.63-3.64,3.63-3.64h30.07c2,0,3.63,1.63,3.63,3.64v30.07Z"/><path class="cls-1" d="m85.86,82.16h30.07c2.01,0,3.63,1.63,3.63,3.63v30.07c0,2.01-1.63,3.64-3.64,3.64h-30.07c-2.01,0-3.64-1.63-3.64-3.64v-30.07c0-2.01,1.63-3.63,3.63-3.63Z"/><path class="cls-1" d="m74.76,160.71c0,2-1.63,3.63-3.63,3.63h-30.07c-2.01,0-3.63-1.63-3.63-3.63v-30.07c0-2.01,1.63-3.64,3.63-3.64h30.07c2,0,3.63,1.63,3.63,3.64v30.07Z"/><path class="cls-1" d="m85.86,127h30.07c2.01,0,3.63,1.63,3.63,3.63v30.07c0,2.01-1.63,3.63-3.63,3.63h-30.07c-2.01,0-3.64-1.63-3.64-3.64v-30.07c0-2.01,1.63-3.64,3.64-3.64Z"/><path class="cls-1" d="m41.05,171.85h30.07c2,0,3.63,1.63,3.63,3.63v30.08c0,2-1.63,3.63-3.63,3.63h-30.07c-2,0-3.63-1.63-3.63-3.63v-30.07c0-2.01,1.63-3.63,3.63-3.63Z"/><path class="cls-1" d="m85.86,171.85h30.07c2.01,0,3.63,1.63,3.63,3.63v30.07c0,2.01-1.63,3.63-3.63,3.63h-30.07c-2.01,0-3.64-1.63-3.64-3.64v-30.07c0-2.01,1.63-3.64,3.64-3.64Z"/><path class="cls-1" d="m76.62,56.05c0,11.34-9.19,20.53-20.54,20.53s-20.54-9.19-20.54-20.53,9.19-20.54,20.54-20.54,20.54,9.19,20.54,20.54"/><text class="cls-2" transform="translate(185.84 118.67)"><tspan x="0" y="0">INSTITUTO FEDERAL</tspan></text><text class="cls-4" transform="translate(186.8 164.69)"><tspan x="0" y="0">Rio Grande do Norte</tspan></text><text class="cls-3" transform="translate(188.25 209.38)"><tspan x="0" y="0">Campus Natal-Zona Leste</tspan></text></g></svg>