<svg xmlns="http://www.w3.org/2000/svg" width="178" height="55.943" viewBox="0 0 178 55.943">
  <g id="Logo_IFRN-ZL" data-name="Logo IFRN-ZL" transform="translate(0)">
    <g id="Grupo_308" data-name="Grupo 308" transform="translate(0)">
      <g id="Grupo_314" data-name="Grupo 314">
        <path id="Caminho_275" data-name="Caminho 275" d="M345.826,344.653a1.171,1.171,0,0,1-1.171,1.17H334.97a1.17,1.17,0,0,1-1.171-1.17v-9.686a1.17,1.17,0,0,1,1.171-1.171h9.685a1.171,1.171,0,0,1,1.171,1.171Z" transform="translate(-304.331 -304.328)" fill="#fff"/>
        <path id="Caminho_276" data-name="Caminho 276" d="M182.332,17.68a1.17,1.17,0,0,1-1.171,1.17h-9.686a1.17,1.17,0,0,1-1.171-1.17V7.994a1.169,1.169,0,0,1,1.171-1.17h9.686a1.17,1.17,0,0,1,1.171,1.17Z" transform="translate(-155.27 -6.222)" fill="#fff"/>
        <path id="Caminho_277" data-name="Caminho 277" d="M345.826,17.68a1.17,1.17,0,0,1-1.171,1.17H334.97a1.17,1.17,0,0,1-1.171-1.17V7.994a1.169,1.169,0,0,1,1.171-1.17h9.685a1.17,1.17,0,0,1,1.171,1.17Z" transform="translate(-304.331 -6.222)" fill="#fff"/>
        <path id="Caminho_278" data-name="Caminho 278" d="M18.846,181.054a1.171,1.171,0,0,1-1.17,1.171H7.989a1.17,1.17,0,0,1-1.17-1.171v-9.686a1.171,1.171,0,0,1,1.17-1.171h9.687a1.171,1.171,0,0,1,1.17,1.171Z" transform="translate(-6.217 -155.171)" fill="#fff"/>
        <path id="Caminho_279" data-name="Caminho 279" d="M182.332,181.054a1.171,1.171,0,0,1-1.171,1.171h-9.686a1.17,1.17,0,0,1-1.171-1.171v-9.686a1.171,1.171,0,0,1,1.171-1.171h9.686a1.172,1.172,0,0,1,1.171,1.171Z" transform="translate(-155.27 -155.171)" fill="#fff"/>
        <path id="Caminho_280" data-name="Caminho 280" d="M18.846,344.653a1.171,1.171,0,0,1-1.17,1.17H7.989a1.17,1.17,0,0,1-1.17-1.17v-9.686a1.17,1.17,0,0,1,1.17-1.171h9.687a1.171,1.171,0,0,1,1.17,1.171Z" transform="translate(-6.217 -304.328)" fill="#fff"/>
        <path id="Caminho_281" data-name="Caminho 281" d="M182.332,344.653a1.171,1.171,0,0,1-1.171,1.17h-9.686a1.17,1.17,0,0,1-1.171-1.17v-9.686a1.17,1.17,0,0,1,1.171-1.171h9.686a1.171,1.171,0,0,1,1.171,1.171Z" transform="translate(-155.27 -304.328)" fill="#fff"/>
        <path id="Caminho_282" data-name="Caminho 282" d="M18.846,508.316a1.171,1.171,0,0,1-1.17,1.171H7.989a1.17,1.17,0,0,1-1.17-1.171V498.63a1.17,1.17,0,0,1,1.17-1.171h9.687a1.171,1.171,0,0,1,1.17,1.171Z" transform="translate(-6.217 -453.543)" fill="#fff"/>
        <path id="Caminho_283" data-name="Caminho 283" d="M182.332,508.316a1.171,1.171,0,0,1-1.171,1.171h-9.686a1.17,1.17,0,0,1-1.171-1.171V498.63a1.17,1.17,0,0,1,1.171-1.171h9.686a1.171,1.171,0,0,1,1.171,1.171Z" transform="translate(-155.27 -453.543)" fill="#fff"/>
        <path id="Caminho_284" data-name="Caminho 284" d="M13.231,6.616A6.615,6.615,0,1,1,6.616,0a6.613,6.613,0,0,1,6.615,6.616" transform="translate(-0.001 0)" fill="#fff"/>
      </g>
    </g>
    <text id="Campus_Natal-Zona_Leste" data-name="Campus Natal-Zona Leste" transform="translate(49.057 52.943)" fill="#fff" font-size="10" font-family="OpenSans, Open Sans"><tspan x="0" y="0">Campus Natal-Zona Leste</tspan></text>
    <text id="Rio_Grande_do_Norte" data-name="Rio Grande do Norte" transform="translate(49.057 39.943)" fill="#fff" font-size="10" font-family="OpenSans, Open Sans"><tspan x="0" y="0">Rio Grande do Norte</tspan></text>
    <text id="INSTITUTO_FEDERAL" data-name="INSTITUTO FEDERAL" transform="translate(49 25.943)" fill="#fff" font-size="13" font-family="OpenSans-Bold, Open Sans" font-weight="700"><tspan x="0" y="0">INSTITUTO FEDERAL</tspan></text>
  </g>
</svg>
