<?xml version="1.0" encoding="utf-8"?>
<!-- Generator: Adobe Illustrator 26.0.3, SVG Export Plug-In . SVG Version: 6.00 Build 0)  -->
<svg version="1.1" id="Camada_1" xmlns="http://www.w3.org/2000/svg" xmlns:xlink="http://www.w3.org/1999/xlink" x="0px" y="0px"
	 viewBox="293 166 213.3 60" enable-background="new 293 166 213.3 60" xml:space="preserve">
<path fill="#FFFFFF" d="M334.6,208.3c0,0.7-0.5,1.2-1.2,1.2h-9.6c-0.7,0-1.2-0.5-1.2-1.2v-9.6c0-0.7,0.5-1.2,1.2-1.2h9.6
	c0.7,0,1.2,0.5,1.2,1.2V208.3z"/>
<path fill="#FFFFFF" d="M320.3,179.7c0,0.7-0.5,1.2-1.2,1.2h-9.6c-0.7,0-1.2-0.5-1.2-1.2v-9.7c0-0.7,0.5-1.2,1.2-1.2h9.6
	c0.7,0,1.2,0.5,1.2,1.2V179.7z"/>
<path fill="#FFFFFF" d="M334.6,179.7c0,0.7-0.5,1.2-1.2,1.2h-9.6c-0.7,0-1.2-0.5-1.2-1.2v-9.7c0-0.7,0.5-1.2,1.2-1.2h9.6
	c0.7,0,1.2,0.5,1.2,1.2V179.7z"/>
<path fill="#FFFFFF" d="M305.9,194c0,0.7-0.5,1.2-1.2,1.2h-9.6c-0.7,0-1.2-0.5-1.2-1.2v-9.7c0-0.7,0.5-1.2,1.2-1.2h9.6
	c0.7,0,1.2,0.5,1.2,1.2V194z"/>
<path fill="#FFFFFF" d="M320.3,194c0,0.7-0.5,1.2-1.2,1.2h-9.6c-0.7,0-1.2-0.5-1.2-1.2v-9.7c0-0.7,0.5-1.2,1.2-1.2h9.6
	c0.7,0,1.2,0.5,1.2,1.2V194z"/>
<path fill="#FFFFFF" d="M305.9,208.3c0,0.7-0.5,1.2-1.2,1.2h-9.6c-0.7,0-1.2-0.5-1.2-1.2v-9.6c0-0.7,0.5-1.2,1.2-1.2h9.6
	c0.7,0,1.2,0.5,1.2,1.2V208.3z"/>
<path fill="#FFFFFF" d="M320.3,208.3c0,0.7-0.5,1.2-1.2,1.2h-9.6c-0.7,0-1.2-0.5-1.2-1.2v-9.6c0-0.7,0.5-1.2,1.2-1.2h9.6
	c0.7,0,1.2,0.5,1.2,1.2V208.3z"/>
<path fill="#FFFFFF" d="M305.9,222.6c0,0.7-0.5,1.2-1.2,1.2h-9.6c-0.7,0-1.2-0.5-1.2-1.2V213c0-0.7,0.5-1.2,1.2-1.2h9.6
	c0.7,0,1.2,0.5,1.2,1.2V222.6z"/>
<path fill="#FFFFFF" d="M320.3,222.6c0,0.7-0.5,1.2-1.2,1.2h-9.6c-0.7,0-1.2-0.5-1.2-1.2V213c0-0.7,0.5-1.2,1.2-1.2h9.6
	c0.7,0,1.2,0.5,1.2,1.2V222.6z"/>
<path fill="#FFFFFF" d="M306.6,174.9c0,3.6-3,6.6-6.6,6.6c-3.6,0-6.6-3-6.6-6.6c0-3.6,3-6.6,6.6-6.6
	C303.6,168.3,306.6,171.3,306.6,174.9"/>
<g>
	<path fill="#FFFFFF" d="M344.1,219.8v3.8H343v-9.2h2.5c1.1,0,2,0.2,2.5,0.7c0.5,0.4,0.8,1.1,0.8,2c0,1.2-0.6,2-1.9,2.5l2.5,4.2
		h-1.3l-2.2-3.8H344.1z M344.1,218.9h1.5c0.8,0,1.3-0.2,1.7-0.5c0.4-0.3,0.5-0.8,0.5-1.4c0-0.6-0.2-1.1-0.5-1.3
		c-0.4-0.3-0.9-0.4-1.7-0.4h-1.4V218.9z"/>
	<path fill="#FFFFFF" d="M350.8,214.8c0-0.2,0.1-0.4,0.2-0.5c0.1-0.1,0.3-0.2,0.4-0.2c0.2,0,0.3,0.1,0.4,0.2
		c0.1,0.1,0.2,0.3,0.2,0.5c0,0.2-0.1,0.4-0.2,0.5c-0.1,0.1-0.3,0.2-0.4,0.2c-0.2,0-0.3-0.1-0.4-0.2
		C350.8,215.3,350.8,215.1,350.8,214.8z M351.9,223.7h-1.1v-6.9h1.1V223.7z"/>
	<path fill="#FFFFFF" d="M360.2,220.2c0,1.1-0.3,2-0.9,2.6c-0.6,0.6-1.4,1-2.4,1c-0.6,0-1.2-0.1-1.7-0.4c-0.5-0.3-0.9-0.7-1.1-1.3
		c-0.3-0.5-0.4-1.2-0.4-1.9c0-1.1,0.3-2,0.8-2.6c0.6-0.6,1.4-0.9,2.4-0.9c1,0,1.7,0.3,2.3,1C359.9,218.2,360.2,219.1,360.2,220.2z
		 M354.9,220.2c0,0.9,0.2,1.6,0.5,2c0.4,0.5,0.9,0.7,1.6,0.7c0.7,0,1.2-0.2,1.6-0.7c0.4-0.5,0.5-1.1,0.5-2c0-0.9-0.2-1.6-0.5-2
		c-0.4-0.5-0.9-0.7-1.6-0.7c-0.7,0-1.2,0.2-1.6,0.7C355,218.6,354.9,219.3,354.9,220.2z"/>
	<path fill="#FFFFFF" d="M369.6,218.8h3.1v4.5c-0.5,0.2-1,0.3-1.5,0.4c-0.5,0.1-1.1,0.1-1.8,0.1c-1.4,0-2.5-0.4-3.3-1.2
		c-0.8-0.8-1.2-2-1.2-3.5c0-1,0.2-1.8,0.6-2.5c0.4-0.7,0.9-1.3,1.7-1.7c0.7-0.4,1.6-0.6,2.6-0.6c1,0,1.9,0.2,2.8,0.5l-0.4,0.9
		c-0.8-0.4-1.6-0.5-2.4-0.5c-1.1,0-2,0.3-2.6,1c-0.6,0.7-1,1.6-1,2.8c0,1.2,0.3,2.2,0.9,2.8c0.6,0.6,1.5,1,2.7,1
		c0.6,0,1.3-0.1,1.9-0.2v-2.8h-2.1V218.8z"/>
	<path fill="#FFFFFF" d="M378,216.6c0.3,0,0.6,0,0.8,0.1l-0.1,1c-0.3-0.1-0.5-0.1-0.8-0.1c-0.6,0-1,0.2-1.4,0.7
		c-0.4,0.5-0.6,1-0.6,1.7v3.7h-1.1v-6.9h0.9l0.1,1.3h0.1c0.3-0.5,0.6-0.8,0.9-1C377.2,216.7,377.6,216.6,378,216.6z"/>
	<path fill="#FFFFFF" d="M384.4,223.7l-0.2-1h-0.1c-0.3,0.4-0.7,0.7-1,0.9c-0.3,0.2-0.8,0.2-1.3,0.2c-0.7,0-1.2-0.2-1.6-0.5
		c-0.4-0.4-0.6-0.9-0.6-1.5c0-1.4,1.1-2.1,3.4-2.2l1.2,0v-0.4c0-0.5-0.1-0.9-0.4-1.2c-0.2-0.3-0.6-0.4-1.1-0.4c-0.6,0-1.2,0.2-2,0.5
		l-0.3-0.8c0.3-0.2,0.7-0.3,1.1-0.4c0.4-0.1,0.8-0.2,1.2-0.2c0.8,0,1.4,0.2,1.8,0.6c0.4,0.4,0.6,1,0.6,1.8v4.7H384.4z M382,222.9
		c0.7,0,1.2-0.2,1.5-0.5c0.4-0.4,0.6-0.9,0.6-1.5v-0.6l-1.1,0c-0.8,0-1.4,0.2-1.8,0.4c-0.4,0.2-0.6,0.6-0.6,1.1
		c0,0.4,0.1,0.7,0.3,0.9C381.3,222.8,381.6,222.9,382,222.9z"/>
	<path fill="#FFFFFF" d="M392.1,223.7v-4.5c0-0.6-0.1-1-0.4-1.3c-0.3-0.3-0.7-0.4-1.2-0.4c-0.7,0-1.3,0.2-1.6,0.6
		c-0.3,0.4-0.5,1-0.5,1.9v3.6h-1.1v-6.9h0.9l0.2,0.9h0.1c0.2-0.3,0.5-0.6,0.9-0.8c0.4-0.2,0.8-0.3,1.3-0.3c0.8,0,1.5,0.2,1.9,0.6
		c0.4,0.4,0.6,1,0.6,1.9v4.5H392.1z"/>
	<path fill="#FFFFFF" d="M400,222.7L400,222.7c-0.5,0.7-1.3,1.1-2.2,1.1c-0.9,0-1.6-0.3-2.1-0.9s-0.8-1.5-0.8-2.6
		c0-1.1,0.3-2,0.8-2.7c0.5-0.6,1.2-0.9,2.1-0.9c0.9,0,1.7,0.3,2.2,1h0.1l0-0.5l0-0.5v-2.8h1.1v9.8h-0.9L400,222.7z M397.9,222.9
		c0.7,0,1.2-0.2,1.6-0.6c0.3-0.4,0.5-1,0.5-1.9v-0.2c0-1-0.2-1.7-0.5-2.1c-0.3-0.4-0.9-0.6-1.6-0.6c-0.6,0-1.1,0.2-1.4,0.7
		c-0.3,0.5-0.5,1.2-0.5,2c0,0.9,0.2,1.6,0.5,2C396.8,222.7,397.3,222.9,397.9,222.9z"/>
	<path fill="#FFFFFF" d="M406.2,223.8c-1,0-1.8-0.3-2.4-0.9c-0.6-0.6-0.9-1.5-0.9-2.6c0-1.1,0.3-2,0.8-2.7c0.6-0.7,1.3-1,2.2-1
		c0.9,0,1.6,0.3,2.1,0.9c0.5,0.6,0.8,1.3,0.8,2.3v0.7H404c0,0.8,0.2,1.4,0.6,1.9c0.4,0.4,0.9,0.6,1.7,0.6c0.7,0,1.5-0.2,2.2-0.5v0.9
		c-0.4,0.2-0.7,0.3-1.1,0.3C407.1,223.7,406.7,223.8,406.2,223.8z M405.9,217.5c-0.6,0-1,0.2-1.3,0.5c-0.3,0.4-0.5,0.9-0.6,1.5h3.6
		c0-0.7-0.1-1.2-0.4-1.5C406.9,217.6,406.5,217.5,405.9,217.5z"/>
	<path fill="#FFFFFF" d="M418.6,222.7L418.6,222.7c-0.5,0.7-1.3,1.1-2.2,1.1c-0.9,0-1.6-0.3-2.1-0.9s-0.8-1.5-0.8-2.6
		c0-1.1,0.3-2,0.8-2.7c0.5-0.6,1.2-0.9,2.1-0.9c0.9,0,1.7,0.3,2.2,1h0.1l0-0.5l0-0.5v-2.8h1.1v9.8h-0.9L418.6,222.7z M416.5,222.9
		c0.7,0,1.2-0.2,1.6-0.6c0.3-0.4,0.5-1,0.5-1.9v-0.2c0-1-0.2-1.7-0.5-2.1c-0.3-0.4-0.9-0.6-1.6-0.6c-0.6,0-1.1,0.2-1.4,0.7
		c-0.3,0.5-0.5,1.2-0.5,2c0,0.9,0.2,1.6,0.5,2C415.4,222.7,415.9,222.9,416.5,222.9z"/>
	<path fill="#FFFFFF" d="M427.9,220.2c0,1.1-0.3,2-0.9,2.6c-0.6,0.6-1.4,1-2.4,1c-0.6,0-1.2-0.1-1.7-0.4c-0.5-0.3-0.9-0.7-1.1-1.3
		c-0.3-0.5-0.4-1.2-0.4-1.9c0-1.1,0.3-2,0.8-2.6c0.6-0.6,1.4-0.9,2.4-0.9c1,0,1.7,0.3,2.3,1C427.6,218.2,427.9,219.1,427.9,220.2z
		 M422.6,220.2c0,0.9,0.2,1.6,0.5,2c0.4,0.5,0.9,0.7,1.6,0.7c0.7,0,1.2-0.2,1.6-0.7c0.4-0.5,0.5-1.1,0.5-2c0-0.9-0.2-1.6-0.5-2
		c-0.4-0.5-0.9-0.7-1.6-0.7c-0.7,0-1.2,0.2-1.6,0.7C422.7,218.6,422.6,219.3,422.6,220.2z"/>
	<path fill="#FFFFFF" d="M440.5,223.7h-1.2l-5.1-7.8h-0.1c0.1,0.9,0.1,1.7,0.1,2.5v5.3h-1v-9.2h1.2l5.1,7.7h0.1c0-0.1,0-0.5-0.1-1.1
		c0-0.6,0-1.1,0-1.3v-5.3h1V223.7z"/>
	<path fill="#FFFFFF" d="M448.9,220.2c0,1.1-0.3,2-0.9,2.6c-0.6,0.6-1.4,1-2.4,1c-0.6,0-1.2-0.1-1.7-0.4c-0.5-0.3-0.9-0.7-1.1-1.3
		c-0.3-0.5-0.4-1.2-0.4-1.9c0-1.1,0.3-2,0.8-2.6c0.6-0.6,1.4-0.9,2.4-0.9c1,0,1.7,0.3,2.3,1C448.6,218.2,448.9,219.1,448.9,220.2z
		 M443.6,220.2c0,0.9,0.2,1.6,0.5,2c0.4,0.5,0.9,0.7,1.6,0.7c0.7,0,1.2-0.2,1.6-0.7c0.4-0.5,0.5-1.1,0.5-2c0-0.9-0.2-1.6-0.5-2
		c-0.4-0.5-0.9-0.7-1.6-0.7c-0.7,0-1.2,0.2-1.6,0.7C443.7,218.6,443.6,219.3,443.6,220.2z"/>
	<path fill="#FFFFFF" d="M453.9,216.6c0.3,0,0.6,0,0.8,0.1l-0.1,1c-0.3-0.1-0.5-0.1-0.8-0.1c-0.6,0-1,0.2-1.4,0.7
		c-0.4,0.5-0.6,1-0.6,1.7v3.7h-1.1v-6.9h0.9l0.1,1.3h0.1c0.3-0.5,0.6-0.8,0.9-1C453,216.7,453.4,216.6,453.9,216.6z"/>
	<path fill="#FFFFFF" d="M458.2,222.9c0.2,0,0.4,0,0.5,0c0.2,0,0.3-0.1,0.4-0.1v0.8c-0.1,0.1-0.3,0.1-0.5,0.1
		c-0.2,0-0.4,0.1-0.6,0.1c-1.3,0-2-0.7-2-2.1v-4.1h-1V217l1-0.4l0.4-1.5h0.6v1.6h2v0.8h-2v4.1c0,0.4,0.1,0.7,0.3,1
		C457.6,222.8,457.9,222.9,458.2,222.9z"/>
	<path fill="#FFFFFF" d="M463.5,223.8c-1,0-1.8-0.3-2.4-0.9c-0.6-0.6-0.9-1.5-0.9-2.6c0-1.1,0.3-2,0.8-2.7c0.6-0.7,1.3-1,2.2-1
		c0.9,0,1.6,0.3,2.1,0.9c0.5,0.6,0.8,1.3,0.8,2.3v0.7h-4.8c0,0.8,0.2,1.4,0.6,1.9c0.4,0.4,0.9,0.6,1.7,0.6c0.7,0,1.5-0.2,2.2-0.5
		v0.9c-0.4,0.2-0.7,0.3-1.1,0.3C464.4,223.7,464,223.8,463.5,223.8z M463.2,217.5c-0.6,0-1,0.2-1.3,0.5c-0.3,0.4-0.5,0.9-0.6,1.5
		h3.6c0-0.7-0.1-1.2-0.4-1.5C464.2,217.6,463.8,217.5,463.2,217.5z"/>
</g>
<g>
	<path fill="#FFFFFF" d="M342.9,209.3v-11.8h2.5v11.8H342.9z"/>
	<path fill="#FFFFFF" d="M359,209.3h-3.2l-5.2-9h-0.1c0.1,1.6,0.2,2.7,0.2,3.4v5.6h-2.2v-11.8h3.2l5.2,8.9h0.1
		c-0.1-1.5-0.1-2.6-0.1-3.3v-5.6h2.3V209.3z"/>
	<path fill="#FFFFFF" d="M369,206.1c0,1.1-0.4,1.9-1.2,2.5c-0.8,0.6-1.8,0.9-3.2,0.9c-1.3,0-2.4-0.2-3.4-0.7v-2.3
		c0.8,0.4,1.5,0.6,2,0.8c0.6,0.1,1.1,0.2,1.5,0.2c0.6,0,1-0.1,1.3-0.3s0.4-0.5,0.4-0.9c0-0.2-0.1-0.4-0.2-0.6
		c-0.1-0.2-0.3-0.4-0.6-0.5c-0.3-0.2-0.8-0.4-1.5-0.8c-0.7-0.3-1.3-0.7-1.6-1c-0.4-0.3-0.7-0.7-0.9-1.1c-0.2-0.4-0.3-0.9-0.3-1.5
		c0-1,0.4-1.9,1.1-2.5c0.7-0.6,1.7-0.9,3-0.9c0.6,0,1.2,0.1,1.8,0.2c0.6,0.1,1.1,0.4,1.8,0.6l-0.8,2c-0.6-0.3-1.2-0.4-1.6-0.5
		c-0.4-0.1-0.8-0.2-1.2-0.2c-0.5,0-0.8,0.1-1.1,0.3c-0.3,0.2-0.4,0.5-0.4,0.9c0,0.2,0.1,0.4,0.2,0.6c0.1,0.2,0.3,0.3,0.5,0.5
		c0.2,0.2,0.8,0.4,1.6,0.8c1.1,0.5,1.9,1.1,2.3,1.6C368.7,204.6,369,205.3,369,206.1z"/>
	<path fill="#FFFFFF" d="M375.7,209.3h-2.5v-9.8h-3.2v-2.1h9v2.1h-3.2V209.3z"/>
	<path fill="#FFFFFF" d="M380.7,209.3v-11.8h2.5v11.8H380.7z"/>
	<path fill="#FFFFFF" d="M390.8,209.3h-2.5v-9.8h-3.2v-2.1h9v2.1h-3.2V209.3z"/>
	<path fill="#FFFFFF" d="M405.5,197.5v7.7c0,0.9-0.2,1.6-0.6,2.3c-0.4,0.7-1,1.2-1.7,1.5c-0.7,0.4-1.6,0.5-2.6,0.5
		c-1.5,0-2.7-0.4-3.6-1.2c-0.8-0.8-1.3-1.8-1.3-3.2v-7.6h2.5v7.3c0,0.9,0.2,1.6,0.6,2c0.4,0.4,1,0.6,1.8,0.6c0.8,0,1.4-0.2,1.8-0.6
		c0.4-0.4,0.6-1.1,0.6-2v-7.2H405.5z"/>
	<path fill="#FFFFFF" d="M413,209.3h-2.5v-9.8h-3.2v-2.1h9v2.1H413V209.3z"/>
	<path fill="#FFFFFF" d="M428.8,203.4c0,2-0.5,3.5-1.5,4.5c-1,1.1-2.4,1.6-4.2,1.6c-1.8,0-3.2-0.5-4.2-1.6c-1-1.1-1.5-2.6-1.5-4.5
		c0-2,0.5-3.5,1.5-4.5c1-1,2.4-1.6,4.2-1.6c1.8,0,3.2,0.5,4.2,1.6C428.4,199.9,428.8,201.4,428.8,203.4z M420.2,203.4
		c0,1.3,0.3,2.3,0.8,3c0.5,0.7,1.3,1,2.3,1c2,0,3-1.3,3-4c0-2.7-1-4-3-4c-1,0-1.8,0.3-2.3,1C420.4,201.1,420.2,202.1,420.2,203.4z"
		/>
	<path fill="#FFFFFF" d="M438.1,209.3h-2.5v-11.8h6.8v2.1h-4.3v3.1h4v2.1h-4V209.3z"/>
	<path fill="#FFFFFF" d="M451.6,209.3h-6.8v-11.8h6.8v2.1h-4.3v2.6h4v2.1h-4v3.1h4.3V209.3z"/>
	<path fill="#FFFFFF" d="M463.9,203.3c0,2-0.6,3.4-1.7,4.5c-1.1,1-2.7,1.6-4.8,1.6h-3.4v-11.8h3.7c1.9,0,3.4,0.5,4.5,1.5
		C463.4,200,463.9,201.5,463.9,203.3z M461.3,203.4c0-2.5-1.1-3.8-3.4-3.8h-1.3v7.7h1.1C460.1,207.3,461.3,206,461.3,203.4z"/>
	<path fill="#FFFFFF" d="M473.2,209.3h-6.8v-11.8h6.8v2.1h-4.3v2.6h4v2.1h-4v3.1h4.3V209.3z"/>
	<path fill="#FFFFFF" d="M478.2,204.8v4.5h-2.5v-11.8h3.5c1.6,0,2.8,0.3,3.6,0.9c0.8,0.6,1.2,1.5,1.2,2.7c0,0.7-0.2,1.3-0.6,1.9
		c-0.4,0.5-0.9,1-1.6,1.3c1.8,2.7,3,4.4,3.5,5.2h-2.8l-2.8-4.5H478.2z M478.2,202.8h0.8c0.8,0,1.4-0.1,1.8-0.4
		c0.4-0.3,0.6-0.7,0.6-1.2c0-0.6-0.2-1-0.6-1.2c-0.4-0.2-1-0.4-1.8-0.4h-0.8V202.8z"/>
	<path fill="#FFFFFF" d="M493.9,209.3l-0.9-2.8h-4.3l-0.9,2.8h-2.7l4.2-11.9h3.1l4.2,11.9H493.9z M492.5,204.4
		c-0.8-2.6-1.2-4-1.3-4.3c-0.1-0.3-0.2-0.6-0.2-0.8c-0.2,0.7-0.7,2.4-1.5,5.1H492.5z"/>
	<path fill="#FFFFFF" d="M498.1,209.3v-11.8h2.5v9.8h4.8v2.1H498.1z"/>
</g>
</svg>
