<?xml version="1.0" encoding="utf-8"?>
<!-- Generator: Adobe Illustrator 26.0.3, SVG Export Plug-In . SVG Version: 6.00 Build 0)  -->
<svg version="1.1" id="Camada_1" xmlns="http://www.w3.org/2000/svg" xmlns:xlink="http://www.w3.org/1999/xlink" x="0px" y="0px"
	 viewBox="0 0 511.4 511.4" enable-background="new 0 0 511.4 511.4" xml:space="preserve">
<g>
	<path fill="#FFFFFF" d="M159.5,464.6V350.2l17.6,1.3c175,123.1,229.9,31.4,229.9,31.4s22.6-51.5-64.1-64.1s-128.1-49-128.1-49
		C101.7,178.1,206,67.6,206,67.6c115.9-88.3,265.4-32.2,300.1-17.2C494.6,20.9,466.1,0,432.6,0H78.8C35.3,0,0,35.3,0,78.8v353.8
		c0,43.5,35.3,78.8,78.8,78.8h353.8c43.5,0,78.8-35.3,78.8-78.8V412C439.9,570.5,159.5,464.6,159.5,464.6z"/>
	<path fill="#FFFFFF" d="M301.5,124.1c-57.8,52.8,49,72.9,49,72.9c102.8,16.6,150.9,62.3,161,75.7V159.4
		C493.2,149.2,355.4,74.9,301.5,124.1z"/>
</g>
</svg>
